<svg width="16.000000" height="16.000000" viewBox="0 0 16 16" fill="none" xmlns="http://www.w3.org/2000/svg" xmlns:xlink="http://www.w3.org/1999/xlink">
    <desc>
        Inst img.
    </desc>
    <defs/>
    <path id="Vector" d="M5.12 -0.25C4.59 -0.23 3.96 -0.17 3.64 -0.11C1.77 0.25 0.5 1.52 0.14 3.39C0.01 4.1 0 4.45 0 7.75C0 11.04 0.01 11.39 0.14 12.1C0.5 13.97 1.77 15.24 3.64 15.6C4.35 15.73 4.7 15.75 8 15.75C11.29 15.75 11.64 15.73 12.35 15.6C14.22 15.24 15.49 13.97 15.85 12.1C15.98 11.39 16 11.04 16 7.75C16 4.45 15.98 4.1 15.85 3.39C15.49 1.52 14.21 0.24 12.34 -0.11C11.65 -0.23 11.38 -0.24 8.33 -0.25C7.26 -0.26 6.19 -0.26 5.12 -0.25ZM11.62 1.25C12.27 1.34 12.76 1.48 13.14 1.7C13.38 1.85 13.9 2.36 14.04 2.6C14.27 3 14.41 3.48 14.49 4.17C14.55 4.67 14.55 10.82 14.49 11.32C14.41 12.01 14.27 12.49 14.04 12.89C13.9 13.13 13.38 13.65 13.14 13.79C12.74 14.02 12.26 14.16 11.57 14.24C11.07 14.3 4.92 14.3 4.42 14.24C3.73 14.16 3.25 14.02 2.85 13.79C2.61 13.65 2.09 13.13 1.95 12.89C1.72 12.49 1.58 12.01 1.5 11.32C1.44 10.82 1.44 4.67 1.5 4.17C1.56 3.68 1.62 3.38 1.74 3.06C1.88 2.7 2.02 2.47 2.28 2.19C2.87 1.55 3.55 1.3 4.81 1.23C5.51 1.19 11.29 1.21 11.62 1.25ZM11.96 2.55C11.72 2.63 11.43 2.93 11.35 3.18C11.3 3.35 11.3 3.52 11.34 3.7C11.38 3.87 11.47 4.02 11.59 4.15C11.72 4.27 11.87 4.36 12.05 4.4C12.22 4.44 12.4 4.44 12.56 4.39C12.83 4.31 13.11 4.02 13.19 3.76C13.26 3.53 13.25 3.28 13.15 3.06C13.03 2.85 12.86 2.69 12.65 2.58C12.43 2.5 12.18 2.49 11.96 2.55ZM7.61 3.64C6.66 3.73 5.76 4.16 5.09 4.84C4.58 5.34 4.22 5.95 4.03 6.63C3.84 7.32 3.83 8.03 3.99 8.72C4.16 9.41 4.5 10.04 4.98 10.56C5.47 11.07 6.07 11.46 6.75 11.67C7.56 11.93 8.43 11.93 9.24 11.67C9.87 11.47 10.44 11.12 10.91 10.66C11.37 10.19 11.72 9.62 11.92 8.99C12.18 8.18 12.18 7.31 11.92 6.5C11.72 5.87 11.37 5.3 10.91 4.84C10.44 4.37 9.87 4.02 9.24 3.82C8.72 3.66 8.16 3.6 7.61 3.64L7.61 3.64ZM8.63 5.16C8.92 5.23 9.44 5.48 9.67 5.68C9.97 5.92 10.21 6.22 10.38 6.59C10.59 7.02 10.65 7.26 10.65 7.75C10.65 8.23 10.59 8.47 10.38 8.91C10.13 9.45 9.7 9.88 9.16 10.13C8.72 10.34 8.48 10.4 8 10.4C7.51 10.4 7.27 10.34 6.83 10.13C6.29 9.88 5.86 9.45 5.61 8.91C5.52 8.73 5.45 8.55 5.4 8.37C5.32 8.06 5.32 7.43 5.4 7.13C5.48 6.82 5.73 6.31 5.93 6.07C6.36 5.55 6.96 5.21 7.62 5.11C7.96 5.07 8.3 5.09 8.63 5.16L8.63 5.16Z" fill="#FFFFFF" fill-opacity="1.000000" fill-rule="evenodd"/>
</svg>
