<svg width="17" height="19" viewBox="0 0 17 19" fill="none" xmlns="http://www.w3.org/2000/svg">
    <path fill-rule="evenodd" clip-rule="evenodd" d="M6.25005 4.5C6.25005 3.90326 6.48711 3.33097 6.90906 2.90901C7.33102 2.48705 7.90332 2.25 8.50005 2.25C9.09679 2.25 9.66909 2.48705 10.091 2.90901C10.513 3.33097 10.7501 3.90326 10.7501 4.5V5H12.2501V4.5C12.2501 4.00754 12.1531 3.51991 11.9646 3.06494C11.7761 2.60997 11.4999 2.19657 11.1517 1.84835C10.8035 1.50013 10.3901 1.22391 9.93512 1.03545C9.48015 0.846997 8.99251 0.75 8.50005 0.75C8.0076 0.75 7.51996 0.846997 7.06499 1.03545C6.61002 1.22391 6.19662 1.50013 5.8484 1.84835C5.50018 2.19657 5.22396 2.60997 5.03551 3.06494C4.84705 3.51991 4.75005 4.00754 4.75005 4.5V5H6.25005V4.5ZM2.20605 5C1.74193 5 1.29681 5.18437 0.968618 5.51256C0.640429 5.84075 0.456055 6.28587 0.456055 6.75V17.25C0.456055 18.216 1.23905 19 2.20605 19H14.7941C15.2582 19 15.7033 18.8156 16.0315 18.4874C16.3597 18.1592 16.5441 17.7141 16.5441 17.25V6.75C16.5441 6.28587 16.3597 5.84075 16.0315 5.51256C15.7033 5.18437 15.2582 5 14.7941 5H2.20605ZM1.95605 6.75C1.95605 6.6837 1.98239 6.62011 2.02928 6.57322C2.07616 6.52634 2.13975 6.5 2.20605 6.5H14.7941C14.8604 6.5 14.9239 6.52634 14.9708 6.57322C15.0177 6.62011 15.0441 6.6837 15.0441 6.75V17.25C15.0441 17.3163 15.0177 17.3799 14.9708 17.4268C14.9239 17.4737 14.8604 17.5 14.7941 17.5H2.20605C2.13975 17.5 2.07616 17.4737 2.02928 17.4268C1.98239 17.3799 1.95605 17.3163 1.95605 17.25V6.75Z" fill="black"/>
</svg>
