<svg width="15.000000" height="13.000000" viewBox="0 0 15 13" fill="none" xmlns="http://www.w3.org/2000/svg" xmlns:xlink="http://www.w3.org/1999/xlink">
    <desc>
        Telegram img.
    </desc>
    <defs/>
    <path id="Vector" d="M13.76 -0.16C13.52 -0.36 13.14 -0.39 12.75 -0.23L12.75 -0.23C12.34 -0.07 1.15 4.73 0.69 4.93C0.61 4.96 -0.11 5.23 -0.04 5.83C0.03 6.37 0.61 6.59 0.68 6.62L3.53 7.6C3.71 8.22 4.41 10.54 4.56 11.04C4.66 11.35 4.82 11.75 5.09 11.84C5.33 11.93 5.57 11.84 5.73 11.72L7.47 10.11L10.27 12.3L10.34 12.34C10.53 12.42 10.71 12.47 10.89 12.47C11.02 12.47 11.15 12.44 11.28 12.39C11.7 12.22 11.87 11.82 11.88 11.77L13.98 0.87C14.11 0.28 13.93 -0.01 13.76 -0.16ZM6.04 7.98L5.08 10.55L4.11 7.35L11.48 1.9L6.04 7.98Z" fill="#FFFFFF" fill-opacity="1.000000" fill-rule="nonzero"/>
</svg>
