<svg width="13.000000" height="16.000000" viewBox="0 0 13 16" fill="none" xmlns="http://www.w3.org/2000/svg" xmlns:xlink="http://www.w3.org/1999/xlink">
    <desc>
        TT img.
    </desc>
    <defs/>
    <path id="Vector" d="M6.42 -0.25L9.16 -0.25C9.16 -0.25 9 3.26 12.95 3.51L12.95 6.22C12.95 6.22 10.84 6.35 9.16 5.07L9.18 10.67C9.18 11.68 8.89 12.66 8.33 13.49C7.77 14.33 6.98 14.98 6.05 15.36C5.12 15.74 4.1 15.84 3.12 15.65C2.13 15.45 1.23 14.97 0.52 14.26C-0.19 13.55 -0.67 12.64 -0.87 11.66C-1.06 10.67 -0.96 9.65 -0.57 8.72C-0.19 7.8 0.46 7.01 1.3 6.45C2.13 5.89 3.12 5.6 4.12 5.6L4.83 5.6L4.83 8.38C4.37 8.24 3.87 8.25 3.41 8.4C2.95 8.56 2.56 8.85 2.28 9.25C2 9.64 1.85 10.11 1.85 10.6C1.85 11.08 2.01 11.55 2.29 11.94C2.58 12.33 2.98 12.62 3.44 12.77C3.9 12.92 4.4 12.91 4.86 12.77C5.32 12.62 5.72 12.33 6 11.93C6.29 11.54 6.44 11.07 6.44 10.59L6.42 -0.25Z" fill="#FFFFFF" fill-opacity="1.000000" fill-rule="nonzero"/>
</svg>
