<svg width="16.000000" height="11.000000" viewBox="0 0 16 11" fill="none" xmlns="http://www.w3.org/2000/svg" xmlns:xlink="http://www.w3.org/1999/xlink">
    <desc>
        YouTube img
    </desc>
    <defs/>
    <path id="Vector" d="M15.67 1.47C16 2.68 16 5.25 16 5.25C16 5.25 16 7.81 15.67 9.02C15.59 9.36 15.4 9.67 15.15 9.92C14.9 10.17 14.58 10.34 14.24 10.43C13 10.75 8 10.75 8 10.75C8 10.75 2.99 10.75 1.76 10.43C1.41 10.34 1.09 10.17 0.84 9.92C0.59 9.67 0.4 9.36 0.32 9.02C0 7.81 0 5.25 0 5.25C0 5.25 0 2.68 0.32 1.47C0.41 1.13 0.59 0.82 0.85 0.57C1.1 0.33 1.41 0.15 1.76 0.06C2.99 -0.25 8 -0.25 8 -0.25C8 -0.25 13 -0.25 14.24 0.06C14.58 0.15 14.89 0.33 15.14 0.57C15.4 0.82 15.58 1.13 15.67 1.47ZM6.39 7.6L10.56 5.25L6.39 2.89L6.39 7.6Z" fill="#FFFFFF" fill-opacity="1.000000" fill-rule="nonzero"/>
</svg>
